<mxfile host="Electron" agent="Mozilla/5.0 (Windows NT 10.0; Win64; x64) AppleWebKit/537.36 (KHTML, like Gecko) draw.io/27.0.9 Chrome/134.0.6998.205 Electron/35.4.0 Safari/537.36" version="27.0.9">
  <diagram name="Страница — 1" id="8NphzNy4wIktR6boJ4kL">
    <mxGraphModel dx="2253" dy="849" grid="1" gridSize="10" guides="1" tooltips="1" connect="1" arrows="1" fold="1" page="1" pageScale="1" pageWidth="827" pageHeight="1169" math="0" shadow="0">
      <root>
        <mxCell id="0" />
        <mxCell id="1" parent="0" />
        <mxCell id="sAG9ZelZPATGGO4qsfU9-2" value="" style="rounded=0;whiteSpace=wrap;html=1;" vertex="1" parent="1">
          <mxGeometry x="250" y="20" width="260" height="780" as="geometry" />
        </mxCell>
        <mxCell id="J-aDhWOuI1ZgeHbZbZPQ-5" style="rounded=0;orthogonalLoop=1;jettySize=auto;html=1;exitX=0;exitY=0.3333333333333333;exitDx=0;exitDy=0;exitPerimeter=0;entryX=0;entryY=0.5;entryDx=0;entryDy=0;endArrow=none;startFill=0;fontSize=16;" parent="1" source="J-aDhWOuI1ZgeHbZbZPQ-1" target="J-aDhWOuI1ZgeHbZbZPQ-4" edge="1">
          <mxGeometry relative="1" as="geometry" />
        </mxCell>
        <mxCell id="J-aDhWOuI1ZgeHbZbZPQ-14" style="rounded=0;orthogonalLoop=1;jettySize=auto;html=1;exitX=0;exitY=0.3333333333333333;exitDx=0;exitDy=0;exitPerimeter=0;entryX=1;entryY=0.5;entryDx=0;entryDy=0;endArrow=none;startFill=0;fontSize=16;" parent="1" source="J-aDhWOuI1ZgeHbZbZPQ-1" target="J-aDhWOuI1ZgeHbZbZPQ-12" edge="1">
          <mxGeometry relative="1" as="geometry" />
        </mxCell>
        <mxCell id="J-aDhWOuI1ZgeHbZbZPQ-17" style="rounded=0;orthogonalLoop=1;jettySize=auto;html=1;exitX=0;exitY=0.3333333333333333;exitDx=0;exitDy=0;exitPerimeter=0;entryX=1;entryY=0.5;entryDx=0;entryDy=0;endArrow=none;startFill=0;fontSize=16;" parent="1" source="J-aDhWOuI1ZgeHbZbZPQ-1" target="J-aDhWOuI1ZgeHbZbZPQ-15" edge="1">
          <mxGeometry relative="1" as="geometry" />
        </mxCell>
        <mxCell id="J-aDhWOuI1ZgeHbZbZPQ-27" style="rounded=0;orthogonalLoop=1;jettySize=auto;html=1;exitX=0;exitY=0.3333333333333333;exitDx=0;exitDy=0;exitPerimeter=0;entryX=1;entryY=0.5;entryDx=0;entryDy=0;endArrow=none;startFill=0;fontSize=16;" parent="1" source="J-aDhWOuI1ZgeHbZbZPQ-1" target="J-aDhWOuI1ZgeHbZbZPQ-19" edge="1">
          <mxGeometry relative="1" as="geometry" />
        </mxCell>
        <mxCell id="J-aDhWOuI1ZgeHbZbZPQ-28" style="rounded=0;orthogonalLoop=1;jettySize=auto;html=1;exitX=0;exitY=0.3333333333333333;exitDx=0;exitDy=0;exitPerimeter=0;entryX=1;entryY=0.5;entryDx=0;entryDy=0;endArrow=none;startFill=0;fontSize=16;" parent="1" source="J-aDhWOuI1ZgeHbZbZPQ-1" target="J-aDhWOuI1ZgeHbZbZPQ-20" edge="1">
          <mxGeometry relative="1" as="geometry" />
        </mxCell>
        <mxCell id="J-aDhWOuI1ZgeHbZbZPQ-29" style="rounded=0;orthogonalLoop=1;jettySize=auto;html=1;exitX=0;exitY=0.3333333333333333;exitDx=0;exitDy=0;exitPerimeter=0;entryX=1;entryY=0.5;entryDx=0;entryDy=0;endArrow=none;startFill=0;fontSize=16;" parent="1" source="J-aDhWOuI1ZgeHbZbZPQ-1" target="J-aDhWOuI1ZgeHbZbZPQ-21" edge="1">
          <mxGeometry relative="1" as="geometry" />
        </mxCell>
        <mxCell id="J-aDhWOuI1ZgeHbZbZPQ-30" style="rounded=0;orthogonalLoop=1;jettySize=auto;html=1;exitX=0;exitY=0.3333333333333333;exitDx=0;exitDy=0;exitPerimeter=0;entryX=1;entryY=0.5;entryDx=0;entryDy=0;endArrow=none;startFill=0;fontSize=16;" parent="1" source="J-aDhWOuI1ZgeHbZbZPQ-1" target="J-aDhWOuI1ZgeHbZbZPQ-22" edge="1">
          <mxGeometry relative="1" as="geometry" />
        </mxCell>
        <mxCell id="J-aDhWOuI1ZgeHbZbZPQ-36" style="rounded=0;orthogonalLoop=1;jettySize=auto;html=1;exitX=0;exitY=0.3333333333333333;exitDx=0;exitDy=0;exitPerimeter=0;entryX=1;entryY=0.5;entryDx=0;entryDy=0;endArrow=none;startFill=0;fontSize=16;" parent="1" source="J-aDhWOuI1ZgeHbZbZPQ-1" target="J-aDhWOuI1ZgeHbZbZPQ-32" edge="1">
          <mxGeometry relative="1" as="geometry" />
        </mxCell>
        <mxCell id="J-aDhWOuI1ZgeHbZbZPQ-37" style="rounded=0;orthogonalLoop=1;jettySize=auto;html=1;exitX=0;exitY=0.3333333333333333;exitDx=0;exitDy=0;exitPerimeter=0;entryX=1;entryY=0.5;entryDx=0;entryDy=0;endArrow=none;startFill=0;fontSize=16;" parent="1" source="J-aDhWOuI1ZgeHbZbZPQ-1" target="J-aDhWOuI1ZgeHbZbZPQ-33" edge="1">
          <mxGeometry relative="1" as="geometry" />
        </mxCell>
        <mxCell id="J-aDhWOuI1ZgeHbZbZPQ-39" style="rounded=0;orthogonalLoop=1;jettySize=auto;html=1;exitX=0;exitY=0.3333333333333333;exitDx=0;exitDy=0;exitPerimeter=0;entryX=1;entryY=0.5;entryDx=0;entryDy=0;endArrow=none;startFill=0;fontSize=16;" parent="1" source="J-aDhWOuI1ZgeHbZbZPQ-1" target="J-aDhWOuI1ZgeHbZbZPQ-38" edge="1">
          <mxGeometry relative="1" as="geometry" />
        </mxCell>
        <mxCell id="J-aDhWOuI1ZgeHbZbZPQ-1" value="Администратор" style="shape=umlActor;verticalLabelPosition=bottom;verticalAlign=top;html=1;outlineConnect=0;fontSize=16;" parent="1" vertex="1">
          <mxGeometry x="740" y="391" width="30" height="60" as="geometry" />
        </mxCell>
        <mxCell id="J-aDhWOuI1ZgeHbZbZPQ-7" style="rounded=0;orthogonalLoop=1;jettySize=auto;html=1;exitX=1;exitY=0.3333333333333333;exitDx=0;exitDy=0;exitPerimeter=0;entryX=0;entryY=0.5;entryDx=0;entryDy=0;endArrow=none;startFill=0;fontSize=16;" parent="1" source="J-aDhWOuI1ZgeHbZbZPQ-2" target="J-aDhWOuI1ZgeHbZbZPQ-4" edge="1">
          <mxGeometry relative="1" as="geometry" />
        </mxCell>
        <mxCell id="J-aDhWOuI1ZgeHbZbZPQ-13" style="rounded=0;orthogonalLoop=1;jettySize=auto;html=1;exitX=1;exitY=0.3333333333333333;exitDx=0;exitDy=0;exitPerimeter=0;entryX=0;entryY=0.5;entryDx=0;entryDy=0;endArrow=none;startFill=0;fontSize=16;" parent="1" source="J-aDhWOuI1ZgeHbZbZPQ-2" target="J-aDhWOuI1ZgeHbZbZPQ-12" edge="1">
          <mxGeometry relative="1" as="geometry" />
        </mxCell>
        <mxCell id="J-aDhWOuI1ZgeHbZbZPQ-16" style="rounded=0;orthogonalLoop=1;jettySize=auto;html=1;exitX=1;exitY=0.3333333333333333;exitDx=0;exitDy=0;exitPerimeter=0;entryX=0;entryY=0.5;entryDx=0;entryDy=0;endArrow=none;startFill=0;fontSize=16;" parent="1" source="J-aDhWOuI1ZgeHbZbZPQ-2" target="J-aDhWOuI1ZgeHbZbZPQ-15" edge="1">
          <mxGeometry relative="1" as="geometry" />
        </mxCell>
        <mxCell id="J-aDhWOuI1ZgeHbZbZPQ-34" style="rounded=0;orthogonalLoop=1;jettySize=auto;html=1;exitX=1;exitY=0.3333333333333333;exitDx=0;exitDy=0;exitPerimeter=0;entryX=0;entryY=0.5;entryDx=0;entryDy=0;endArrow=none;startFill=0;fontSize=16;" parent="1" source="J-aDhWOuI1ZgeHbZbZPQ-2" target="J-aDhWOuI1ZgeHbZbZPQ-33" edge="1">
          <mxGeometry relative="1" as="geometry" />
        </mxCell>
        <mxCell id="J-aDhWOuI1ZgeHbZbZPQ-35" style="rounded=0;orthogonalLoop=1;jettySize=auto;html=1;exitX=1;exitY=0.3333333333333333;exitDx=0;exitDy=0;exitPerimeter=0;entryX=0;entryY=0.5;entryDx=0;entryDy=0;endArrow=none;startFill=0;fontSize=16;" parent="1" source="J-aDhWOuI1ZgeHbZbZPQ-2" target="J-aDhWOuI1ZgeHbZbZPQ-32" edge="1">
          <mxGeometry relative="1" as="geometry" />
        </mxCell>
        <mxCell id="J-aDhWOuI1ZgeHbZbZPQ-2" value="Инженер-конструктор" style="shape=umlActor;verticalLabelPosition=bottom;verticalAlign=top;html=1;outlineConnect=0;fontSize=16;" parent="1" vertex="1">
          <mxGeometry x="10" y="220" width="30" height="60" as="geometry" />
        </mxCell>
        <mxCell id="J-aDhWOuI1ZgeHbZbZPQ-8" style="rounded=0;orthogonalLoop=1;jettySize=auto;html=1;exitX=1;exitY=0.3333333333333333;exitDx=0;exitDy=0;exitPerimeter=0;entryX=0;entryY=0.5;entryDx=0;entryDy=0;endArrow=none;startFill=0;fontSize=16;" parent="1" source="J-aDhWOuI1ZgeHbZbZPQ-3" target="J-aDhWOuI1ZgeHbZbZPQ-4" edge="1">
          <mxGeometry relative="1" as="geometry" />
        </mxCell>
        <mxCell id="J-aDhWOuI1ZgeHbZbZPQ-23" style="rounded=0;orthogonalLoop=1;jettySize=auto;html=1;exitX=1;exitY=0.3333333333333333;exitDx=0;exitDy=0;exitPerimeter=0;entryX=0;entryY=0.5;entryDx=0;entryDy=0;endArrow=none;startFill=0;fontSize=16;" parent="1" source="J-aDhWOuI1ZgeHbZbZPQ-3" target="J-aDhWOuI1ZgeHbZbZPQ-19" edge="1">
          <mxGeometry relative="1" as="geometry" />
        </mxCell>
        <mxCell id="J-aDhWOuI1ZgeHbZbZPQ-24" style="rounded=0;orthogonalLoop=1;jettySize=auto;html=1;exitX=1;exitY=0.3333333333333333;exitDx=0;exitDy=0;exitPerimeter=0;endArrow=none;startFill=0;fontSize=16;" parent="1" source="J-aDhWOuI1ZgeHbZbZPQ-3" target="J-aDhWOuI1ZgeHbZbZPQ-20" edge="1">
          <mxGeometry relative="1" as="geometry" />
        </mxCell>
        <mxCell id="J-aDhWOuI1ZgeHbZbZPQ-25" style="rounded=0;orthogonalLoop=1;jettySize=auto;html=1;exitX=1;exitY=0.3333333333333333;exitDx=0;exitDy=0;exitPerimeter=0;entryX=0;entryY=0.5;entryDx=0;entryDy=0;endArrow=none;startFill=0;fontSize=16;" parent="1" source="J-aDhWOuI1ZgeHbZbZPQ-3" target="J-aDhWOuI1ZgeHbZbZPQ-21" edge="1">
          <mxGeometry relative="1" as="geometry" />
        </mxCell>
        <mxCell id="J-aDhWOuI1ZgeHbZbZPQ-26" style="rounded=0;orthogonalLoop=1;jettySize=auto;html=1;exitX=1;exitY=0.3333333333333333;exitDx=0;exitDy=0;exitPerimeter=0;entryX=0;entryY=0.5;entryDx=0;entryDy=0;endArrow=none;startFill=0;fontSize=16;" parent="1" source="J-aDhWOuI1ZgeHbZbZPQ-3" target="J-aDhWOuI1ZgeHbZbZPQ-22" edge="1">
          <mxGeometry relative="1" as="geometry" />
        </mxCell>
        <mxCell id="J-aDhWOuI1ZgeHbZbZPQ-3" value="Инженер-испытатель" style="shape=umlActor;verticalLabelPosition=bottom;verticalAlign=top;html=1;outlineConnect=0;fontSize=16;" parent="1" vertex="1">
          <mxGeometry x="10" y="600" width="30" height="60" as="geometry" />
        </mxCell>
        <mxCell id="J-aDhWOuI1ZgeHbZbZPQ-4" value="Авторизация" style="ellipse;whiteSpace=wrap;html=1;fontSize=16;" parent="1" vertex="1">
          <mxGeometry x="300" y="420" width="160" height="60" as="geometry" />
        </mxCell>
        <mxCell id="J-aDhWOuI1ZgeHbZbZPQ-12" value="Просмотр деталей&lt;br&gt;и ракет" style="ellipse;whiteSpace=wrap;html=1;fontSize=16;" parent="1" vertex="1">
          <mxGeometry x="300" y="180" width="160" height="60" as="geometry" />
        </mxCell>
        <mxCell id="J-aDhWOuI1ZgeHbZbZPQ-15" value="Редактирование&lt;br&gt;деталей и ракет" style="ellipse;whiteSpace=wrap;html=1;fontSize=16;" parent="1" vertex="1">
          <mxGeometry x="300" y="250" width="160" height="60" as="geometry" />
        </mxCell>
        <mxCell id="J-aDhWOuI1ZgeHbZbZPQ-19" value="Просмотр тестирований ракет" style="ellipse;whiteSpace=wrap;html=1;fontSize=16;" parent="1" vertex="1">
          <mxGeometry x="300" y="510" width="160" height="60" as="geometry" />
        </mxCell>
        <mxCell id="J-aDhWOuI1ZgeHbZbZPQ-20" value="Редактирование&lt;br&gt;тестирований" style="ellipse;whiteSpace=wrap;html=1;fontSize=16;" parent="1" vertex="1">
          <mxGeometry x="300" y="580" width="160" height="60" as="geometry" />
        </mxCell>
        <mxCell id="J-aDhWOuI1ZgeHbZbZPQ-21" value="Просмотр транспортировок" style="ellipse;whiteSpace=wrap;html=1;fontSize=16;" parent="1" vertex="1">
          <mxGeometry x="300" y="650" width="160" height="60" as="geometry" />
        </mxCell>
        <mxCell id="J-aDhWOuI1ZgeHbZbZPQ-22" value="Редактирование&lt;br&gt;транспортировок" style="ellipse;whiteSpace=wrap;html=1;fontSize=16;" parent="1" vertex="1">
          <mxGeometry x="300" y="720" width="160" height="60" as="geometry" />
        </mxCell>
        <mxCell id="J-aDhWOuI1ZgeHbZbZPQ-32" value="Просмотр поставок" style="ellipse;whiteSpace=wrap;html=1;fontSize=16;" parent="1" vertex="1">
          <mxGeometry x="300" y="40" width="160" height="60" as="geometry" />
        </mxCell>
        <mxCell id="J-aDhWOuI1ZgeHbZbZPQ-33" value="Редактирование&lt;br&gt;поставок" style="ellipse;whiteSpace=wrap;html=1;fontSize=16;" parent="1" vertex="1">
          <mxGeometry x="300" y="110" width="160" height="60" as="geometry" />
        </mxCell>
        <mxCell id="J-aDhWOuI1ZgeHbZbZPQ-38" value="Просмотр сотрудников" style="ellipse;whiteSpace=wrap;html=1;fontSize=16;" parent="1" vertex="1">
          <mxGeometry x="300" y="340" width="160" height="60" as="geometry" />
        </mxCell>
      </root>
    </mxGraphModel>
  </diagram>
</mxfile>
